<svg width="39" height="34" viewBox="0 0 39 34" fill="none" xmlns="http://www.w3.org/2000/svg">
    <!-- Speech Bubble -->
    <path d="M6 4H33C33.5523 4 34 4.44772 34 5V20C34 20.5523 33.5523 21 33 21H15L10 25V21H6C5.44772 21 5 20.5523 5 20V5C5 4.44772 5.44772 4 6 4Z" fill="url(#paint0_linear)"/>

    <!-- Inner Glow -->
    <path d="M7 5H32C32.5523 5 33 5.44772 33 6V19C33 19.5523 32.5523 20 32 20H16L12 23V20H7C6.44772 20 6 19.5523 6 19V6C6 5.44772 6.44772 5 7 5Z" fill="white" fill-opacity="0.7"/>

    <!-- Sound Waves -->
    <path d="M12 12C12.5523 12 13 12.4477 13 13V14C13 14.5523 12.5523 15 12 15C11.4477 15 11 14.5523 11 14V13C11 12.4477 11.4477 12 12 12Z" fill="#FFC19E"/>
    <path d="M17 10C17.5523 10 18 10.4477 18 11V12C18 12.5523 17.5523 13 17 13C16.4477 13 16 12.5523 16 12V11C16 10.4477 16.4477 10 17 10Z" fill="#FFC19E"/>
    <path d="M22 14C22.5523 14 23 14.4477 23 15V16C23 16.5523 22.5523 17 22 17C21.4477 17 21 16.5523 21 16V15C21 14.4477 21.4477 14 22 14Z" fill="#FFC19E"/>

    <defs>
        <!-- Gradient for speech bubble -->
        <linearGradient id="paint0_linear" x1="6" y1="4" x2="34" y2="21" gradientUnits="userSpaceOnUse">
            <stop stop-color="white"/>
            <stop offset="1" stop-color="#FFC19E"/>
        </linearGradient>
    </defs>
</svg>
